<svg width="100" height="27" viewBox="0 0 100 27" fill="none" xmlns="http://www.w3.org/2000/svg">
<path d="M4.01864 26.9589L0 13.4795L4.01864 0H95.9814L100 13.4795L95.9814 26.9589H4.01864Z" fill="#00589C"/>
<path d="M27.11 20.2192H25.5479V6.73975H27.11C30.7759 6.75234 31.053 8.20107 31.053 13.4921C31.053 18.7579 30.7759 20.2066 27.11 20.2192ZM27.5383 18.2414C28.9366 18.2414 29.0248 17.8886 28.9996 13.4669C29.0122 9.07031 28.924 8.71757 27.5383 8.71757V18.2414Z" fill="white"/>
<path d="M32.9678 6.73975H37.5029V8.78056H34.9582V12.3205H36.7975V14.4873H34.9582V18.191H37.5029V20.2318H32.9678V6.73975Z" fill="white"/>
<path d="M42.9199 6.73975H44.8474L42.7939 20.2192H40.8161L38.7627 6.73975H40.6901L41.6853 14.1472L41.7609 14.714H41.8743L41.9499 14.1472L42.9199 6.73975Z" fill="white"/>
<path d="M46.4097 6.73975H50.9448V8.78056H48.4001V12.3205H50.2393V14.4873H48.4001V18.191H50.9448V20.2318H46.4097V6.73975Z" fill="white"/>
<path d="M52.8472 6.73975H54.825V18.38H57.4453V20.2192H52.8472V6.73975Z" fill="white"/>
<path d="M61.3 20.3704C58.6419 20.3704 58.6545 17.4603 58.6545 17.4603V9.52382C58.6545 9.52382 58.6419 6.61377 61.3 6.61377C63.9581 6.61377 63.9455 9.52382 63.9455 9.52382V17.4603C63.9329 17.4477 63.9581 20.3704 61.3 20.3704ZM61.3 8.51601C60.6072 8.51601 60.645 9.51122 60.645 9.51122V17.4477C60.645 17.4477 60.6072 18.4429 61.3 18.4429C61.9929 18.4429 61.9551 17.4477 61.9551 17.4477V9.51122C61.9551 9.51122 61.9929 8.51601 61.3 8.51601Z" fill="white"/>
<path d="M66.0115 6.73975C66.0115 6.73975 67.9011 6.73975 67.9893 6.73975C69.7152 6.73975 71.4788 7.67197 71.4788 10.771C71.4788 13.87 69.7152 14.8274 67.9893 14.8274V20.2192H66.0115V6.73975ZM67.9893 12.8118C69.2365 12.8118 69.4758 12.3583 69.4758 10.8466C69.4758 9.34746 69.2365 8.75537 67.9893 8.75537V12.8118Z" fill="white"/>
<path d="M72.9907 6.73975H77.5259V8.78056H74.9811V12.3205H76.8204V14.4873H74.9811V18.191H77.5259V20.2318H72.9907V6.73975Z" fill="white"/>
<path d="M82.8925 20.2192L81.8595 14.5377H81.3304V20.2192H79.3525V6.73975H81.3304C83.6735 6.73975 84.7065 8.10029 84.7065 10.6324C84.7065 11.9678 84.3538 13.1771 83.6105 13.6936L84.8703 20.2192H82.8925ZM81.343 8.70498V12.6984C81.8973 12.6984 82.8043 12.6228 82.8043 10.6954C82.8043 8.76796 81.8847 8.70498 81.343 8.70498Z" fill="white"/>
<path d="M88.6495 6.58852C91.0304 6.53813 91.4209 8.66713 91.4209 10.1663L89.4809 10.3552C89.4809 9.46078 89.3549 8.41518 88.6873 8.41518C88.1707 8.42778 88.007 8.98207 88.007 9.75053C88.007 10.6702 88.8006 11.6906 89.5691 12.8118C90.4887 14.1849 91.4209 15.5202 91.4209 16.969C91.4209 18.7704 90.8289 20.3577 88.6747 20.3577C86.1299 20.3577 85.7898 18.4303 85.7898 16.4273L87.7298 16.2383C87.7298 17.3595 87.8432 18.5311 88.6621 18.5311C89.2541 18.5311 89.4683 17.8886 89.4683 17.0446C89.4683 16.1501 88.6243 15.0667 87.8684 13.9329C86.9362 12.5598 86.0543 11.1867 86.0543 9.73793C86.0669 8.27661 86.785 6.62632 88.6495 6.58852Z" fill="white"/>
<path d="M22.4237 9.80103L22.6001 10.7458L22.0458 11.8166C22.0458 11.8166 21.8316 11.3631 21.4663 11.1112C21.164 10.897 20.975 10.8592 20.6727 10.9222C20.2947 11.0104 19.8412 11.4765 19.6396 12.056C19.4129 12.7363 19.4129 13.0638 19.4129 13.3788C19.3877 13.8701 19.4759 14.1472 19.4759 14.1472C19.4759 14.1472 19.1357 13.5299 19.1357 12.6103C19.1357 11.9678 19.2365 11.3757 19.5389 10.7962C19.816 10.2797 20.2065 9.97739 20.5467 9.9396C20.912 9.90181 21.2144 10.0656 21.4285 10.2671C21.6679 10.4561 21.8946 10.9096 21.8946 10.9096L22.4237 9.80103Z" fill="white"/>
<path d="M22.5118 15.1801C22.5118 15.1801 22.2473 15.6084 22.1087 15.7848C21.9575 15.9611 21.6804 16.2509 21.3402 16.402C21.0001 16.5532 20.8237 16.5658 20.5088 16.5532C20.1686 16.5028 19.8411 16.3139 19.7403 16.2509C19.6396 16.1627 19.3498 15.9359 19.2112 15.6966C19.0601 15.4824 18.8081 15.0415 18.8081 15.0415C18.8081 15.0415 18.9593 15.495 19.0475 15.684C19.0853 15.7974 19.2364 16.1123 19.4506 16.4146C19.6395 16.6918 20.0553 17.1453 20.6222 17.2461C21.2269 17.3469 21.63 17.0949 21.7308 17.0319C21.8189 16.9689 22.0331 16.78 22.1591 16.6414C22.3102 16.4902 22.4362 16.3013 22.5244 16.1753C22.5622 16.0871 22.6504 15.9233 22.6504 15.9233L22.5118 15.1801Z" fill="white"/>
<path d="M12.2952 9.83887L13.6432 14.374L14.9659 9.83887H15.9233L13.7187 17.2967H13.6432L12.2448 12.6607L10.8591 17.2967H10.7709L8.55371 9.83887H9.53633L10.8591 14.374L11.7787 11.3128L11.3378 9.83887H12.2952Z" fill="white"/>
<path d="M18.6822 14.9031C18.6822 15.5708 18.5059 16.1377 18.1405 16.6164C17.7752 17.0699 17.3091 17.3093 16.7296 17.3093C16.3013 17.3093 15.9359 17.1581 15.621 16.8935C15.3061 16.6164 15.0667 16.2511 14.9155 15.7849L15.6588 15.47C15.7596 15.7472 15.9107 15.9865 16.0871 16.1251C16.2761 16.3015 16.4902 16.377 16.7296 16.377C16.9815 16.377 17.2209 16.2259 17.3973 15.9235C17.561 15.6464 17.6744 15.3062 17.6744 14.8905C17.6744 14.4496 17.561 14.0969 17.3721 13.8449C17.1579 13.5678 16.8178 13.4166 16.3265 13.4166H15.9611V12.9757L17.2587 10.7585H15.6966L15.2557 11.4892H14.9785V9.83887H18.594V10.2924L17.2209 12.6481C17.687 12.7993 18.0523 13.0765 18.3043 13.4796C18.5562 13.8827 18.6822 14.3488 18.6822 14.9031Z" fill="white"/>
<path d="M8.74258 6.73975L8.604 7.23105H22.5874V6.73975H8.74258Z" fill="white"/>
<path d="M8.76787 20.2192H22.5875V19.7279H8.6167L8.76787 20.2192Z" fill="white"/>
</svg>
